<svg xmlns="http://www.w3.org/2000/svg" viewBox="0 0 24 24" role="img" aria-labelledby="googleIconTitle">
  <title id="googleIconTitle">Google</title>
  <path fill="#EA4335" d="M12 10.2v3.9h5.4c-.2 1.3-1.5 3.9-5.4 3.9-3.2 0-5.9-2.7-5.9-6s2.7-6 5.9-6c1.8 0 3 .8 3.7 1.4l2.5-2.4C16.6 3.5 14.5 2.6 12 2.6 6.9 2.6 2.8 6.7 2.8 11.8S6.9 21 12 21c6.9 0 8.6-4.8 8.6-7.3 0-.5-.1-1-.1-1.4H12z"/>
  <path fill="#34A853" d="M3.8 7.7l3.2 2.3c.9-2 2.8-3.4 5-3.4 1.8 0 3 .8 3.7 1.4l2.5-2.4C16.6 3.5 14.5 2.6 12 2.6c-3.5 0-6.5 2-8.2 5.1z"/>
  <path fill="#FBBC05" d="M12 21c2.4 0 4.5-.8 6-2.3l-2.9-2.2c-.8.6-1.8 1-3.1 1-3.8 0-5.2-2.6-5.4-3.8l-3.3 2.5C5 18.9 8.2 21 12 21z"/>
  <path fill="#4285F4" d="M21.6 13.7c0-.6-.1-1-.1-1.4H12v3.9h5.4c-.3 1.4-1.2 2.5-2.3 3.3l2.9 2.2c1.7-1.5 3.6-4.3 3.6-8z"/>
</svg>
